<?xml version="1.0" encoding="UTF-8"?>
<svg width="204px" height="285px" viewBox="0 0 204 285" version="1.1" xmlns="http://www.w3.org/2000/svg" xmlns:xlink="http://www.w3.org/1999/xlink">
    <title>AF01661F-D292-432B-B695-36CA3EAB03C2</title>
    <g id="Website-Redesign" stroke="none" stroke-width="1" fill="none" fill-rule="evenodd">
        <g id="Products-Antivirus(1366)-Copy" transform="translate(-263.000000, -1205.000000)" fill-rule="nonzero">
            <g id="Group-17-Copy" transform="translate(263.283333, 1205.000000)">
                <g id="Group-16" transform="translate(0.838115, 0.097677)">
                    <ellipse id="Oval" fill="#F2F2F2" cx="77.8966074" cy="272.628017" rx="77.7861111" ry="10.9090278"></ellipse>
                    <ellipse id="Oval" fill="#BA6355" transform="translate(72.048859, 11.558167) rotate(-18.579780) translate(-72.048859, -11.558167) " cx="72.048859" cy="11.5581673" rx="6.54401697" ry="3.17656605"></ellipse>
                    <path d="M58.7830761,26.0370333 L93.1113953,10.3956525 C93.1113953,10.3956525 151.269374,-11.5870328 201.020807,42.0731007 C201.020807,42.0731007 178.723722,27.7599075 161.823198,46.6668857 C161.823198,46.6668857 130.020875,38.0630015 103.332663,69.6759153 C103.332663,69.6759153 61.5906722,75.9969535 44.2056063,98.1492267 C44.2056063,98.1492267 24.8242085,95.1685413 17.1097958,119.738742 C17.0325796,119.983133 16.8339168,120.169843 16.5852103,120.231765 C16.3365037,120.293686 16.0734876,120.221924 15.8906943,120.042269 L15.8906943,120.042269 C15.7837413,119.937638 15.7114152,119.802749 15.6834542,119.655764 C14.9591241,115.858463 6.4349324,65.2045203 58.7830761,26.0370333 Z" id="Path" fill="#E97C6B"></path>
                    <path d="M58.7830761,26.0370333 L93.1113953,10.3956525 C93.1113953,10.3956525 151.269374,-11.5870328 201.020807,42.0731007 C201.020807,42.0731007 178.723722,27.7599075 161.823198,46.6668857 C161.823198,46.6668857 130.020875,38.0630015 103.332663,69.6759153 C103.332663,69.6759153 61.5906722,75.9969535 44.2056063,98.1492267 C44.2056063,98.1492267 24.8242085,95.1685413 17.1097958,119.738742 C17.0325796,119.983133 16.8339168,120.169843 16.5852103,120.231765 C16.3365037,120.293686 16.0734876,120.221924 15.8906943,120.042269 L15.8906943,120.042269 C15.7837413,119.937638 15.7114152,119.802749 15.6834542,119.655764 C14.9591241,115.858463 6.4349324,65.2045203 58.7830761,26.0370333 Z" id="Path" fill="#000000" opacity="0.2"></path>
                    <polygon id="Path" fill="#4D3623" points="69.2375306 90.8454282 83.5319563 93.2280576 88.2967648 70.5948793 76.7819233 65.8300708"></polygon>
                    <circle id="Oval" fill="#FDCEB9" cx="88.8924942" cy="73.9699903" r="12.3091923"></circle>
                    <path d="M83.5320463,80.9187257 C83.5320463,80.9187257 84.7232574,96.0074122 75.5906312,97.1986233 C66.4580049,98.3898345 83.5320463,125.390637 87.8998325,124.993565 C92.2676187,124.596493 100.209034,95.6103538 100.209034,95.6103538 C100.209034,95.6103538 89.8851739,88.46306 93.4588118,82.1099369 L83.5320463,80.9187257 Z" id="Path" fill="#FDCEB9"></path>
                    <path d="M68.2448059,135.91301 C68.2448059,135.91301 69.8330754,147.428059 74.597938,147.428059 C79.3628005,147.428059 71.4213719,134.324727 71.4213719,134.324727 L68.2448059,135.91301 Z" id="Path" fill="#FDCEB9"></path>
                    <path d="M137.732187,147.428059 C137.732187,147.428059 149.644307,157.354824 148.056024,160.53139 C146.467741,163.707956 136.143904,156.957757 135.349765,149.016342 L137.732187,147.428059 Z" id="Path" fill="#FDCEB9"></path>
                    <path d="M65.8624016,185.546842 L58.3180584,213.738856 L49.9795759,247.886934 L57.9209865,247.886934 C57.9209865,247.886934 60.7004806,237.166025 65.8624016,231.607036 C65.8624016,231.607036 71.024318,222.871482 71.024318,216.915422 L83.3335193,187.929265 L65.8624016,185.546842 Z" id="Path" fill="#F9CBB7"></path>
                    <path d="M98.4221923,187.135148 L100.804619,213.738878 C100.804619,213.738878 100.407547,232.79827 100.804619,237.166047 C101.201691,241.533824 100.804619,247.886957 100.804619,247.886957 L107.95189,247.886957 C107.95189,247.886957 114.70209,224.459788 112.716735,211.753528 L115.496229,181.973227 L98.4221923,187.135148 Z" id="Path" fill="#F9CBB7"></path>
                    <path d="M88.2967648,101.690136 C88.2967648,101.690136 80.5111587,101.690136 80.9625556,93.7537527 C80.9625556,93.7537527 70.2301788,94.2205932 65.8624016,98.5883704 C61.4946244,102.956148 67.0536127,117.647762 67.0536127,117.647762 C67.0536127,117.647762 76.5833064,133.530588 74.9950233,140.677859 C73.4067403,147.825131 52.9187032,206.97572 58.4776915,209.358142 C64.0366798,211.740564 97.4388881,223.255617 114.512929,209.358142 C114.512929,209.358142 118.941364,151.372541 105.172396,132.736444 L105.172396,124.997901 C105.172396,124.997901 106.760666,119.621116 106.760666,112.882913 C106.760666,112.882913 113.51087,100.573712 109.540164,98.1912985 C105.569459,95.8088853 96.44844,92.3174602 96.44844,92.3174602 C96.44844,92.3174602 97.0782385,101.690136 88.2967648,101.690136 Z" id="Path" fill="#B6B4B4"></path>
                    <g id="Group-12" transform="translate(90.472287, 133.962503) rotate(-5.000000) translate(-90.472287, -133.962503) translate(73.972287, 130.962503)">
                        <polygon id="Path" fill="#DCDCDC" transform="translate(16.279153, 2.734463) scale(-1, 1) translate(-16.279153, -2.734463) " points="0.4849774 4.54614015 31.7812243 3.6027113 32.0735901 1.57501097 1.12145102 0.922786736"></polygon>
                        <circle id="Oval" fill="#696C71" transform="translate(25.708642, 2.727744) scale(-1, 1) translate(-25.708642, -2.727744) " cx="25.708642" cy="2.7277441" r="2.7277441"></circle>
                    </g>
                    <path d="M68.2448059,98.5883704 C68.2448059,98.5883704 63.0829074,97.7942267 57.9209865,105.338592 C52.7590655,112.882958 39.2586666,124.795056 45.6117852,130.751116 C51.9649038,136.707176 69.0389541,140.677882 69.0389541,140.677882 L73.0096594,133.53061 L55.9356226,125.192123 L70.2301653,114.471219 L68.2448059,98.5883704 Z" id="Path" fill="#B6B4B4"></path>
                    <path d="M107.554819,98.5883704 C107.554819,98.5883704 113.113807,98.5883704 115.496229,105.33857 C117.878651,112.088769 131.776127,135.118871 131.776127,135.118871 L139.717542,147.428072 L134.158554,153.781204 L118.672813,136.310096 L103.981199,112.088783 L107.554819,98.5883704 Z" id="Path" fill="#B6B4B4"></path>
                    <path d="M59.5092695,247.09279 L48.3912928,247.09279 L46.0088661,266.549254 C46.0088661,266.549254 39.6557385,276.873091 49.1854321,275.68188 C58.7151257,274.490669 55.5385642,263.76976 55.5385642,263.76976 L57.9209865,259.799054 L58.7151302,268.137537 L59.5092695,267.740465 L59.5092695,258.607839 C59.5092695,258.607839 63.8770467,254.637134 59.5092695,247.09279 Z" id="Path" fill="#383838"></path>
                    <path d="M109.937241,247.09279 L99.6134034,246.298651 L97.628053,268.534609 C97.628053,268.534609 96.4368419,276.873091 103.584113,275.68188 C110.731385,274.490669 108.348949,267.740465 108.348949,267.740465 L108.348949,255.431264 L109.937241,247.09279 Z" id="Path" fill="#383838"></path>
                    <path d="M79.9584084,61.4622621 C79.9584084,61.4622621 74.1737363,63.3904861 73.8800032,71.0054711 C73.8501609,72.2233829 73.9852299,73.4397335 74.2815352,74.6214284 C74.6072587,76.0018592 74.8166592,78.9721122 72.2923368,82.8536107 C70.6020386,85.4162717 69.0579026,88.0724012 67.6673131,90.8092973 L67.6492161,90.8454913 L74.0023481,91.639635 L75.3532369,81.1088635 C76.0081763,76.0032945 77.4112683,71.021975 79.5173744,66.3251572 L79.5613365,66.2271112 C79.5613365,66.2271112 82.3408306,71.3890321 87.899819,71.3890321 L85.9144686,69.4036772 C85.9144686,69.4036772 94.6500229,72.9773106 97.826589,72.9773106 C97.826589,72.9773106 100.209011,74.5655801 97.826589,76.9480204 C95.4441667,79.3304607 90.6793176,84.889431 93.4588118,89.2572217 C96.238306,93.6250124 93.8558792,94.8162101 93.8558792,94.8162101 L98.2236564,92.4337878 L100.209011,91.2425766 L100.209011,92.8308462 L110.532849,91.639635 C110.532849,91.639635 113.312343,91.2425631 107.356283,84.4923637 C107.356283,84.4923637 105.783486,81.8710349 106.4716,79.6101789 C107.037024,77.8919639 107.185609,76.0638926 106.905086,74.2769192 C105.570778,66.8331379 100.335672,52.0339765 79.9584084,61.4622621 Z" id="Path" fill="#4D3623"></path>
                    <path d="M142.050273,159.827245 C145.979149,155.831863 141.627664,147.557132 141.287584,146.927981 L96.4152704,55.2983406 C96.1298758,54.7217963 95.432104,54.4844334 94.8543423,54.7673556 C94.2765807,55.0502778 94.0362308,55.7470263 94.3166754,56.3259947 L139.211474,148.001114 L139.224076,148.024067 C139.268632,148.105978 143.601196,156.334884 139.742475,158.692634 C135.586794,161.233582 130.740498,157.117259 130.692066,157.075394 C130.376371,156.801593 129.938464,156.717284 129.543674,156.854295 C129.148885,156.991307 128.857354,157.328769 128.779147,157.739273 C128.700939,158.149778 128.847969,158.570792 129.164726,158.843364 C129.415186,159.059889 135.366629,164.107121 140.961257,160.686036 C141.358097,160.4455 141.723847,160.157072 142.050273,159.827245 L142.050273,159.827245 Z" id="Path" fill="#383838"></path>
                    <path d="M55.5730255,19.4669713 L88.8206147,4.31801247 C88.8206147,4.31801247 145.147664,-16.9726302 193.332822,34.9981904 C193.332822,34.9981904 171.737695,21.1356039 155.369234,39.4473343 C155.369234,39.4473343 124.568111,31.1143156 98.720084,61.7319889 C98.720084,61.7319889 58.2922113,67.854032 41.4544616,89.3089069 C41.4544616,89.3089069 22.0985733,86.3321414 14.8734952,111.341216 L13.8739071,110.35828 C13.8739071,110.35828 2.86789688,58.9015567 55.5730255,19.4669713 Z" id="Path" fill="#E97C6B"></path>
                    <path d="M55.7371001,19.3727732 C55.7371001,19.3727732 39.4572025,74.1685263 41.4425574,89.2572082" id="Path" fill="#BA6355"></path>
                    <path d="M72.9428117,11.5525869 C72.9428117,11.5525869 93.4588118,57.8886287 98.6207282,61.859334" id="Path" fill="#BA6355"></path>
                    <path d="M88.6939627,4.28409128 C88.6939627,4.28409128 141.504361,36.0497427 155.401832,39.6233762" id="Path" fill="#BA6355"></path>
                </g>
            </g>
        </g>
    </g>
</svg>