<?xml version="1.0" encoding="UTF-8"?>
<svg width="271px" height="244px" viewBox="0 0 271 244" version="1.1" xmlns="http://www.w3.org/2000/svg" xmlns:xlink="http://www.w3.org/1999/xlink">
    <title>D008917D-C3E7-42BB-B5C1-C86FBA4E592A</title>
    <g id="Website-Redesign" stroke="none" stroke-width="1" fill="none" fill-rule="evenodd">
        <g id="Products-Antivirus(1366)-Copy" transform="translate(-837.000000, -1687.000000)">
            <g id="Group-98-Copy-2" transform="translate(839.362500, 1687.766667)">
                <g id="Group-97-Copy-2" transform="translate(0.000000, 31.304167)">
                    <path d="M176.575933,143.772158 C185.404288,129.042665 190.055143,112.187213 190.0295,95.0146435 C190.0295,42.5394728 147.489879,0 95.0147499,0 C42.5396208,0 1.65818861e-13,42.5394728 1.65818861e-13,95.0146435 C-0.0256435755,112.187213 4.62521206,129.042665 13.4535673,143.772158 L176.575933,143.772158 Z" id="Path" stroke="#BA6355" stroke-width="2.84583333" fill="#E97C6B" fill-rule="nonzero"></path>
                    <circle id="Oval" fill="#FFFFFF" fill-rule="nonzero" cx="95.0147499" cy="88.7636802" r="9.16807964"></circle>
                    <circle id="Oval" fill="#FFFFFF" fill-rule="nonzero" cx="22.0868437" cy="103.765992" r="4.58403982"></circle>
                    <circle id="Oval" fill="#FFFFFF" fill-rule="nonzero" cx="24.7765707" cy="64.0625232" r="4.58403982"></circle>
                    <circle id="Oval" fill="#FFFFFF" fill-rule="nonzero" cx="47.5309151" cy="31.4153209" r="4.58403982"></circle>
                    <circle id="Oval" fill="#FFFFFF" fill-rule="nonzero" cx="83.84975" cy="15.15056" r="4.58403982"></circle>
                    <circle id="Oval" fill="#FFFFFF" fill-rule="nonzero" cx="123.358039" cy="19.9145192" r="4.58403982"></circle>
                    <circle id="Oval" fill="#FFFFFF" fill-rule="nonzero" cx="154.76963" cy="44.3463013" r="4.58403982"></circle>
                    <circle id="Oval" fill="#FFFFFF" fill-rule="nonzero" cx="169.11132" cy="81.466593" r="4.58403982"></circle>
                    <circle id="Oval" fill="#FFFFFF" fill-rule="nonzero" cx="162.286184" cy="120.67141" r="4.58403982"></circle>
                    <line x1="95.0147499" y1="88.7636802" x2="142.105341" y2="52.9248234" id="Path" stroke="#FFFFFF" stroke-width="1.66692357"></line>
                </g>
                <g id="Group-82" transform="translate(163.161111, 0.000000)" fill-rule="nonzero">
                    <ellipse id="Oval" fill="#55575A" opacity="0.1" cx="51.6810089" cy="238.115463" rx="51.6810089" ry="4.59386746"></ellipse>
                    <g id="Group-55" transform="translate(9.953379, 0.000000)">
                        <rect id="Rectangle" fill="#D0CDE1" transform="translate(47.251938, 37.234768) rotate(-2.220710) translate(-47.251938, -37.234768) " x="42.8725523" y="31.6041296" width="8.75877098" height="11.2612775"></rect>
                        <path d="M11.9287645,70.8485076 C11.9287645,70.8485076 -0.191653363,65.0575476 0.00230325046,70.0588001 C0.196259864,75.0600525 12.2196758,78.3503882 12.2196758,78.3503882 L11.9287645,70.8485076 Z" id="Path" fill="#FDCEB9"></path>
                        <path d="M18.5785024,113.165222 C18.5785024,113.165222 12.8602713,127.161093 10.7475209,137.260569 C8.63477049,147.360044 5.41716755,161.258945 9.55598761,171.115996 C13.6948077,180.973047 25.4618593,209.943291 25.5830714,213.069075 C25.7042835,216.194858 24.5751854,219.369124 27.0758096,219.272154 C29.5764338,219.175183 43.1844273,214.890914 43.7368575,212.991199 C44.2892877,211.091484 39.0940905,206.284173 39.0940905,206.284173 L26.2655188,166.085355 L39.6501829,139.896353 L49.3044921,178.966084 L51.1954017,227.728306 C51.1954017,227.728306 60.4757811,224.864042 61.8230616,227.316183 C61.8230616,227.316183 65.9809765,221.520076 66.5091454,218.995206 C67.0373143,216.470337 64.545507,168.357519 64.545507,168.357519 C64.545507,168.357519 73.0640827,113.55677 66.1873572,113.823436 C59.3106316,114.090102 32.375286,97.6038879 18.5785024,113.165222 Z" id="Path" fill="#78625F"></path>
                        <path d="M26.9788431,216.77153 C26.9788431,216.77153 20.635453,230.791643 20.0345356,231.441039 C19.4336182,232.090436 15.2999489,238.511702 18.4257321,238.39049 C21.5515154,238.269278 28.932184,234.852587 34.3646546,229.633152 C39.7971251,224.413717 46.9596112,215.370615 46.3102303,214.769702 C45.6608493,214.168788 41.2120074,212.463014 41.2120074,212.463014 L26.9788431,216.77153 Z" id="Path" fill="#4C4C4C"></path>
                        <path d="M52.3244998,224.554024 C52.3244998,224.554024 51.9417688,230.829832 50.7884252,233.378944 C49.6350815,235.928055 49.7805352,239.678997 52.9063185,239.557785 C56.0321017,239.436573 64.1106542,237.871106 64.1106542,237.871106 C64.1106542,237.871106 64.5903556,234.095926 63.9409589,233.495009 C63.2915622,232.894091 60.5242643,226.114344 61.7018496,224.190388 C62.8794349,222.266431 52.3244998,224.554024 52.3244998,224.554024 Z" id="Path" fill="#4C4C4C"></path>
                        <path d="M56.9488454,20.8932637 C56.9488454,20.8932637 63.6125353,31.2785035 66.21013,33.6821612 C68.8077246,36.085819 61.4997888,41.3779709 61.4997888,41.3779709 L48.4199839,43.1373748 C48.4199839,43.1373748 48.5845324,31.2351592 47.9108902,30.0090867 C47.2372479,28.7830142 56.9488454,20.8932637 56.9488454,20.8932637 Z" id="Path" fill="#FDCEB9"></path>
                        <path d="M45.5799612,34.4821624 C45.5799612,34.4821624 48.2745263,39.3864444 50.7751545,39.2894739 C53.2757827,39.1925035 66.21013,33.6821612 66.7625759,31.7824505 C67.3150219,29.8827397 71.0468496,45.39044 71.0468496,45.39044 L39.3974494,101.08816 L31.6774021,95.7526564 L35.4180507,63.0505688 L38.4902039,45.4007297 L45.5799612,34.4821624 Z" id="Path" fill="#D0CDE1"></path>
                        <path d="M67.9299463,84.3293034 C66.6674602,86.9703093 65.8789577,89.7243916 65.9882931,92.5438546 C65.9931406,92.6688943 65.9979882,92.7939104 66.009093,92.9186902 C66.3085968,98.7047395 68.4401112,105.396455 69.204821,110.262882 C69.7597006,113.753759 69.6017914,116.301831 67.558903,116.900724 C62.6061338,118.344975 68.2810285,119.377107 49.1193603,125.755032 C29.957692,132.132957 26.6137184,126.627758 26.5652352,125.377444 C26.5167519,124.12713 29.2788951,114.628572 28.6294984,114.02767 C27.9801017,113.426769 19.543056,121.893203 16.9939445,120.739843 C14.4448331,119.586484 16.7030372,113.237963 16.7030372,113.237963 C16.7030372,113.237963 22.4455139,99.8672663 22.3243018,96.7414673 C22.2030898,93.6156683 31.0228625,78.8734457 31.0228625,78.8734457 L37.0217231,39.8228094 C37.0217231,39.8228094 39.3284104,34.7245865 42.4299521,33.9781997 C45.5314937,33.2318128 48.1048389,35.0103195 48.1048389,35.0103195 L42.9147688,46.4813485 L37.4389578,66.7287744 L38.3550242,74.2064252 C38.3550242,74.2064252 44.722656,60.8114674 48.9048164,55.6405158 C53.0869768,50.4695641 62.0037161,38.2279539 62.0037161,38.2279539 C62.0037161,38.2279539 64.0854635,31.2037979 62.5139479,29.1046962 C60.942196,26.9993766 69.0692317,26.6842276 72.5344095,35.3152063 C74.3709685,39.8896156 77.3527314,46.7111517 79.220632,53.0624688 C80.8851053,58.6891204 81.6713475,63.9491471 80.0223382,66.955762 C77.5020049,71.5488762 71.1620879,77.5861194 67.9299463,84.3293034 Z" id="Path" fill="#675351"></path>
                        <path d="M80.022354,66.9557699 C77.501993,71.5488762 71.1620879,77.5861194 67.9299463,84.3293034 C67.0857503,81.2878854 66.0558712,78.1410108 66.0558712,78.1410108 C66.0558712,78.1410108 62.1058491,57.0068951 73.7898783,51.5450361 C75.725852,51.3578494 77.6620998,51.8988677 79.2206399,53.0624766 C80.8851211,58.6891283 81.6713632,63.9491628 80.022354,66.9557699 Z" id="Path" fill="#000000" opacity="0.1"></path>
                        <path d="M33.639552,65.6239258 L23.7340136,68.5124318 L9.98055468,69.0457672 L8.56567241,80.9964622 L31.1682808,82.6243604 C31.1682808,82.6243604 36.8138028,66.7530279 33.639552,65.6239258 Z" id="Path" fill="#675351"></path>
                        <path d="M49.7918921,105.805944 C49.7918921,105.805944 36.5402654,108.004517 39.5648096,111.992288 C42.5893537,115.980058 54.3287063,111.787596 54.3287063,111.787596 L49.7918921,105.805944 Z" id="Path" fill="#FDCEB9"></path>
                        <path d="M66.009093,92.9186902 C66.3085968,98.7047395 68.4401112,105.396455 69.204821,110.262882 C64.9833447,114.258293 60.9689776,117.782365 59.4561089,117.841032 C56.3303257,117.962244 51.3048316,117.531026 49.4536041,118.228914 C47.6023765,118.926802 46.5166109,107.073065 46.5166109,107.073065 C46.5166109,107.073065 47.6214713,103.273624 52.5499871,101.204226 C55.8766458,99.8042287 62.2533308,96.0069966 66.009093,92.9186902 Z" id="Path" fill="#000000" opacity="0.1"></path>
                        <path d="M73.6444286,47.7940977 C73.6444286,47.7940977 84.2236092,46.1316642 83.6520842,63.684533 C83.0805592,81.2374017 84.7672343,92.4417295 80.512349,95.7372199 C76.2574637,99.0327103 62.4364385,113.968878 59.3106552,114.09009 C56.184872,114.211302 51.159374,113.780088 49.3081464,114.477971 C47.4569189,115.175855 46.3711572,103.322119 46.3711572,103.322119 C46.3711572,103.322119 47.4760176,99.5226935 52.4045413,97.4532874 C57.3330649,95.3838813 68.9443771,88.0465452 68.8474106,85.5459092 C68.7504441,83.0452731 65.9104175,74.3900606 65.9104175,74.3900606 C65.9104175,74.3900606 61.9603915,53.2559568 73.6444286,47.7940977 Z" id="Path" fill="#675351"></path>
                        <circle id="Oval" fill="#FDCEB9" cx="47.6199828" cy="22.5072179" r="13.7637841"></circle>
                        <path d="M38.3524803,2.77970704 C38.0205001,3.06573938 37.6229438,3.26524529 37.1952067,3.36046246 C36.7482033,3.44014775 36.3207122,3.14402673 36.2381863,2.69753912 C35.9232815,3.350602 35.5679897,4.0466272 34.925055,4.3817255 C34.2821204,4.71682381 33.28795,4.43583599 33.1952758,3.71675841 C33.1014039,4.26273692 32.8598616,4.77260091 32.4968367,5.19107124 C32.0979289,5.57140797 31.3745393,5.66740181 31.0262767,5.24022393 C31.3078355,6.778933 31.1340527,8.36133686 31.2224739,9.92309438 C31.3108952,11.4848519 31.7273502,13.1405437 32.9072864,14.1675049 C34.6280912,15.6652167 37.2157585,15.2955792 39.4793378,15.0118269 C39.8216442,14.9399941 40.1768208,14.9594247 40.5092484,15.0681702 C41.3568035,15.4292743 41.3183539,16.6091042 41.3297817,17.5303016 C41.4725384,20.8679681 44.0050122,23.6144123 47.3201758,24.0268282 C48.2186333,24.1655062 49.1353917,23.9417641 49.8689486,23.4047802 C50.5116351,22.8600328 50.8399209,21.9721774 51.5763567,21.5629405 C52.774289,20.8972804 54.2271561,21.8680715 55.1030009,22.9221293 C55.9788458,23.976187 56.8420499,25.272787 58.1988563,25.4657356 C59.9933153,25.7209105 61.3600569,23.8921565 62.030604,22.2082497 C63.8995966,17.44019 63.7635051,12.119364 61.6532088,7.45308325 C57.9063344,-0.714512663 45.1069188,-2.00637932 38.3524803,2.77970704 Z" id="Path" fill="#443121"></path>
                    </g>
                </g>
            </g>
        </g>
    </g>
</svg>