<?xml version="1.0" encoding="UTF-8"?>
<svg width="304px" height="261px" viewBox="0 0 304 261" version="1.1" xmlns="http://www.w3.org/2000/svg" xmlns:xlink="http://www.w3.org/1999/xlink">
    <title>8E772F67-82F5-4CE4-99FB-CC14FA9B67F8</title>
    <g id="Website-Redesign" stroke="none" stroke-width="1" fill="none" fill-rule="evenodd">
        <g id="Products-Antivirus(1366)-Copy" transform="translate(-233.000000, -2137.000000)" fill-rule="nonzero">
            <g id="Group-47" transform="translate(233.000000, 2137.000000)">
                <g id="Group-46" transform="translate(19.000000, 37.000000)">
                    <polygon id="Path" fill="#E6E6E6" points="200.681612 111.146057 200.681612 190.362144 213.932038 211.956605 214.940465 213.599206 267.223211 213.599206 268.279597 111.146057"></polygon>
                    <polygon id="Path" fill="#000000" opacity="0.1" points="200.681612 111.146057 200.681612 190.362144 213.932038 211.956605 214.745202 111.146057"></polygon>
                    <polygon id="Path" fill="#E6E6E6" points="74.4634221 109.033285 74.4634221 188.249801 61.2129958 209.844262 60.2045691 211.486434 7.92182286 211.486434 6.86543708 109.033285"></polygon>
                    <polygon id="Path" fill="#000000" opacity="0.1" points="74.4634221 109.033285 74.4634221 188.249801 61.2129958 209.844262 60.3998314 109.033285"></polygon>
                    <polygon id="Path" fill="#E6E6E6" points="284.122814 107.449349 284.122814 112.202014 0 112.202014 0 105.336577 26.4053625 91.605703 260.886181 91.605703"></polygon>
                    <polygon id="Path" fill="#000000" opacity="0.1" points="284.122814 107.449349 284.122814 112.202014 0 112.202014 0 105.336577"></polygon>
                    <polygon id="Path" fill="#4C4F52" points="40.6646437 131.213961 27.9897271 131.213961 22.7086546 127.517253 46.473695 127.517253"></polygon>
                    <polygon id="Path" fill="#4C4F52" points="40.6646437 146.5292 27.9897271 146.5292 22.7086546 142.832492 46.473695 142.832492"></polygon>
                    <polygon id="Path" fill="#4C4F52" points="40.6646437 168.181897 27.9897271 168.181897 22.7086546 164.48476 46.473695 164.48476"></polygon>
                    <polygon id="Path" fill="#4C4F52" points="40.6646437 189.834165 27.9897271 189.834165 22.7086546 186.137457 46.473695 186.137457"></polygon>
                    <polygon id="Path" fill="#4C4F52" points="234.48039 133.326304 247.155307 133.326304 252.436379 129.629596 228.671339 129.629596"></polygon>
                    <polygon id="Path" fill="#4C4F52" points="234.48039 148.641543 247.155307 148.641543 252.436379 144.944835 228.671339 144.944835"></polygon>
                    <polygon id="Path" fill="#4C4F52" points="234.48039 170.29424 247.155307 170.29424 252.436379 166.597532 228.671339 166.597532"></polygon>
                    <polygon id="Path" fill="#4C4F52" points="234.48039 191.946509 247.155307 191.946509 252.436379 188.249801 228.671339 188.249801"></polygon>
                    <path d="M243.111683,0 L136.408827,0 C135.338538,0 134.312047,0.424975522 133.555238,1.18178393 C132.79843,1.93859234 132.373454,2.96508361 132.373454,4.03537232 L132.373454,75.9131671 C132.373454,76.983455 132.798432,78.0099452 133.55524,78.7667527 C134.312048,79.5235602 135.338539,79.9486702 136.408827,79.9485351 L176.914135,79.9485351 L175.396618,89.637237 C175.396618,89.637237 166.72423,94.2444279 172.822021,94.3799424 C178.919812,94.515457 207.647056,94.3799424 207.647056,94.3799424 C207.647056,94.3799424 213.202815,94.3799424 204.394917,89.5017225 L202.967439,79.9485351 L243.111683,79.9485351 C244.181971,79.9486737 245.208464,79.5235645 245.965272,78.7667562 C246.72208,78.0099478 247.147051,76.9834557 247.147051,75.9131671 L247.147051,4.03537232 C247.147051,2.96508296 246.722082,1.9385897 245.965273,1.18178043 C245.208465,0.424971155 244.181972,0 243.111683,0 Z" id="Path" fill="#55575A"></path>
                    <rect id="Rectangle" fill="#F2F2F2" x="136.235382" y="4.26844091" width="107.049763" height="59.8936654"></rect>
                    <g id="Group-104" transform="translate(169.738183, 13.782188)">
                        <circle id="Oval" fill="#E97C6B" cx="20.3116999" cy="20.3116999" r="20.3116999"></circle>
                        <polygon id="Path" fill="#FFFFFF" points="24.3183948 11.6254148 16.0906839 11.6254148 16.0906839 21.9857447 12.249209 21.9857447 16.2266577 26.453486 20.2045394 30.9212273 24.1824211 26.453486 28.1598697 21.9857447 24.3183948 21.9857447"></polygon>
                    </g>
                    <circle id="Oval" fill="#F2F2F2" cx="189.760261" cy="2.37135703" r="1"></circle>
                    <circle id="Oval" fill="#F2F2F2" cx="189.760261" cy="74.4605617" r="2.57461384"></circle>
                    <polygon id="Path" fill="#4C4F52" points="185.748333 101.697249 185.748333 103.052523 112.846153 103.052523 112.846153 101.968304 112.946353 101.697249 114.743108 96.8191188 184.257746 96.8191188"></polygon>
                    <path d="M213.803375,100.370665 C213.670584,100.938424 213.169201,101.537386 212.03638,102.103793 C207.9712,104.136382 199.705313,101.561769 199.705313,101.561769 C199.705313,101.561769 193.336532,100.477716 193.336532,97.6320905 C193.515355,97.509637 193.701831,97.3987505 193.894815,97.3001105 C195.603929,96.3958965 201.270803,94.1646872 211.318761,97.3945814 C212.059005,97.6269427 212.720207,98.0602482 213.228713,98.6462294 C213.685716,99.0956285 213.899437,99.7369582 213.803375,100.370665 Z" id="Path" fill="#4C4F52"></path>
                    <path d="M213.803375,100.370665 C208.827613,102.277242 204.392489,102.419514 199.840841,99.2581624 C198.119617,97.985664 196.035365,97.2993082 193.894836,97.3001105 C195.60395,96.3958965 201.270824,94.1646872 211.318783,97.3945814 C212.059026,97.6269427 212.720228,98.0602482 213.228734,98.6462294 C213.68573,99.0956326 213.899443,99.7369618 213.803375,100.370665 Z" id="Path" fill="#000000" opacity="0.1"></path>
                    <ellipse id="Oval" fill="#F2F2F2" cx="207.564678" cy="98.7161427" rx="1.76157789" ry="1"></ellipse>
                    <polygon id="Path" fill="#000000" opacity="0.1" points="185.748333 101.697249 185.748333 103.052523 112.846153 103.052523 112.846153 101.968304 112.946353 101.697249"></polygon>
                </g>
                <g id="Group-45">
                    <path d="M36.8496941,0.0111693215 C36.1770772,-0.0440553099 35.5035563,0.106403067 34.9183809,0.442606976 C34.3438055,0.836089952 33.9816633,1.52543257 33.6120081,2.16690559 C32.1986594,4.6487983 30.2852718,6.81011817 27.9930494,8.5139557 C26.3234562,9.73706958 24.2008164,11.2621314 24.4864691,13.517235 C24.6371615,14.2619665 24.9122871,14.9759761 25.3002875,15.6292669 C26.8405079,18.7384364 31.043539,21.1411662 30.6301211,24.6889867 C32.1603759,22.1271742 30.1135482,20.86043 31.643803,18.298641 C32.3725523,17.0786413 33.6385141,15.7014976 34.7387794,16.4676566 C35.1071811,16.7241913 35.349079,17.1842993 35.7326626,17.4093881 C36.6479426,17.9464838 37.6216728,16.9196754 38.4318709,16.1923742 C41.2256662,13.6843952 45.1987037,14.3414316 48.6753017,15.1228581 C50.3165944,15.4917659 52.1193677,15.9757678 53.08961,17.5444445 C54.3652765,19.6069251 51.877614,21.8344288 51.2490728,24.166267 C51.1449167,24.5695711 51.2450504,24.9983146 51.5170719,25.3137619 C51.7890935,25.6292091 52.1984537,25.7912954 52.612689,25.7475719 C53.6558588,25.6446699 54.8916048,25.5603288 54.9533366,25.1025603 C56.2658055,25.1492738 57.8739745,25.0006432 58.4363227,23.6340062 C58.6081946,23.0932866 58.6990412,22.5300947 58.7059061,21.9627585 C58.9123017,19.6671115 59.8866275,17.5727879 60.5320867,15.3878674 C61.1775459,13.2029469 61.4582042,10.6423646 60.3689439,8.70519668 C59.9801978,8.06066762 59.4994283,7.47635174 58.9418479,6.9707379 C52.7604865,0.98878844 44.6333541,0.00228987291 36.8496941,0.0111693215 Z" id="Path" fill="#443121"></path>
                    <path d="M31.9744603,29.1701147 C31.9744603,29.1701147 33.3187956,40.3729347 28.3895571,41.2691634 C23.4603186,42.1653921 32.8706851,57.4012257 32.8706851,57.4012257 L55.276329,60.0899041 L49.8989723,42.1653882 C49.8989723,42.1653882 46.3140691,40.821049 48.554637,31.858793 C50.7952049,22.896537 31.9744603,29.1701147 31.9744603,29.1701147 Z" id="Path" fill="#FDCEB9"></path>
                    <polygon id="Path" fill="#FDCEB9" points="18.3069996 221.634519 20.0996283 246.280925 29.5096639 246.280925 26.8213048 221.634519"></polygon>
                    <polygon id="Path" fill="#FDCEB9" points="87.3163926 175.030844 88.6605722 195.643933 98.9675061 191.162945 94.9341888 174.134724"></polygon>
                    <path d="M11.5853232,127.530893 C11.5853232,127.530893 12.0334337,153.52144 14.7221315,162.035586 C17.4108293,170.549731 16.9626955,170.997842 16.514585,172.342181 C16.0664746,173.68652 15.6183563,172.790295 15.6183563,175.030859 C15.6183563,177.271423 14.7221315,212.672341 15.6183563,215.809133 C16.5145811,218.945926 12.9296818,224.323279 15.6183563,224.771389 C18.3070308,225.2195 30.8541939,224.771389 31.3023082,222.082711 C31.7504226,219.394033 27.717405,218.497808 29.5098586,216.705358 C31.3023121,214.912908 33.9909866,178.167648 33.9909866,178.167648 L40.2645681,152.625215 L51.9155025,139.181827 L76.5616909,139.181827 L84.1796116,168.757281 C84.1796116,168.757281 81.0428033,177.271427 83.2833829,177.271427 C85.5239625,177.271427 98.9673348,179.960105 98.9673348,170.101621 C98.9673348,160.243136 94.4862068,131.115796 93.5899898,130.219571 C92.6937727,129.323346 94.0381002,126.186554 92.693761,124.842215 C91.3494219,123.497875 75.6654739,114.087505 69.8400067,112.295055 C64.0145395,110.502606 55.8424065,108.36923 55.8424065,108.36923 L11.5853232,127.530893 Z" id="Path" fill="#78625F"></path>
                    <path d="M98.9673348,187.578018 C98.9673348,187.578018 92.2456584,185.337454 89.1088501,192.05915 C85.9720418,198.780846 87.3164004,200.573296 87.3164004,200.573296 C87.3164004,200.573296 97.6229956,204.158199 99.4154491,202.365745 C100.195303,201.585888 102.671653,201.314981 105.220658,201.257776 C109.102893,201.170652 110.135789,195.678154 106.469262,194.399132 C106.359888,194.360983 106.249181,194.327843 106.137141,194.299714 C102.552238,193.403489 98.9673348,187.578018 98.9673348,187.578018 Z" id="Path" fill="#4C4C4C"></path>
                    <circle id="Oval" fill="#FDCEB9" cx="42.0569983" cy="23.1205903" r="13.4433879"></circle>
                    <path d="M24.5805967,46.8705734 C24.5805967,46.8705734 46.5381263,51.3517014 51.915483,44.181895 C57.2928397,37.0120887 59.5333998,64.3469749 59.5333998,64.3469749 L62.2220782,93.0262003 L58.1890606,108.710152 C58.1890606,108.710152 37.1277559,125.738443 30.4060639,127.082779 C23.6843719,128.427114 13.3777728,129.323346 13.3777728,129.323346 C13.3777728,129.323346 16.5145811,79.5828124 16.5145811,78.6865876 C16.5145811,77.7903628 24.5805967,46.8705734 24.5805967,46.8705734 Z" id="Path" fill="#EBF1F6"></path>
                    <path d="M31.2584131,38.466364 C31.2584131,38.466364 26.3730464,35.6677495 25.0287072,38.3564278 C23.684368,41.0451062 11.1372088,47.7667943 9.79286967,47.7667943 C8.44853049,47.7667943 12.481548,84.9601653 10.6890945,89.4412933 C8.89664096,93.9224213 0.382499312,126.634672 5.31174167,129.323346 C10.240984,132.012021 6.65608085,126.634668 11.5853232,133.35636 C16.5145656,140.078052 40.7126591,140.078037 42.0569983,137.389378 C43.4013375,134.700719 31.3022887,114.5356 33.5428527,95.7148787 C35.7834167,76.8941574 39.3683199,50.9035909 36.2315311,47.3186877 C33.0947423,43.7337845 31.2584131,38.466364 31.2584131,38.466364 Z" id="Path" fill="#E97C6B"></path>
                    <path d="M47.4343745,41.4932167 L48.0585479,39.3451764 C48.0585479,39.3451764 66.7032256,45.5262381 67.5994544,49.5592556 C68.4956831,53.5922732 68.0475648,81.8233842 64.910776,84.0639482 C61.7739872,86.3045122 57.2928553,89.8894154 60.429648,95.2667682 C63.5664407,100.644121 67.1513244,106.469592 69.8400184,106.917703 C72.5287123,107.365813 77.4579352,110.502606 76.113596,113.639379 C74.7692568,116.776152 58.6371945,110.950701 58.6371945,110.950701 C58.6371945,110.950701 47.8824849,102.884669 48.3305993,90.3375064 C48.7787136,77.7903433 47.4343745,41.4932167 47.4343745,41.4932167 Z" id="Path" fill="#E97C6B"></path>
                    <path d="M63.118303,94.3705395 L52.3635935,114.535619 C52.3635935,114.535619 36.6796455,130.667682 45.641917,132.460135 C54.6041886,134.252589 59.5334154,117.672408 59.5334154,117.672408 L71.1843536,101.092247 L63.118303,94.3705395 Z" id="Path" fill="#FDCEB9"></path>
                    <path d="M37.5045778,3.52859881 C36.9627171,3.48844786 36.4199638,3.59371998 35.9324054,3.83353644 C35.4915733,4.15549527 35.1282434,4.5718786 34.8689659,5.05225925 C33.6737279,6.85016404 32.1156874,8.37822414 30.2949015,9.53830774 C28.9357814,10.4028063 27.2078664,11.4806998 27.4403982,13.0745939 C27.5666266,13.6089995 27.7912849,14.1152205 28.1028805,14.5673612 C29.3610122,16.7871155 29.8618696,19.3562757 29.5296612,21.8860667 L33.2667801,16.4540708 C33.8600137,15.5917911 34.8905592,14.6184268 35.7862196,15.1599447 C36.086116,15.341259 36.2830288,15.6664625 36.595281,15.825553 C37.3403605,16.2051698 38.1330138,15.4794374 38.7925533,14.9653754 C41.0668171,13.1927517 44.3010385,13.6571418 47.1311341,14.2094466 C48.4672128,14.4701894 49.934747,14.8122798 50.7245664,15.9210119 C52.0370937,17.7635111 50.6665638,20.4257847 51.4325944,22.554322 C51.8658182,22.2510067 52.1577181,21.7851552 52.2417181,21.2630182 C53.3101209,21.2960446 54.6192381,21.1910016 55.0770105,20.2250531 C55.2162442,19.8465031 55.2904416,19.4471282 55.2964625,19.0438295 C55.4644791,17.4212806 56.257619,15.9410247 56.7830519,14.3967403 C57.3084848,12.8524559 57.5369525,11.0426522 56.6502456,9.67347311 C56.3258595,9.20955933 55.9343491,8.79641407 55.4885365,8.4475681 C50.4566336,4.21957251 43.840802,3.52232364 37.5045778,3.52859881 Z" id="Path" fill="#443121"></path>
                    <path d="M63.118303,47.7667943 L67.2934267,48.8750164 C67.2934267,48.8750164 77.0098052,73.7573258 74.7692412,90.7856324 C72.5286772,107.813939 71.1843381,104.22902 71.1843381,104.22902 C71.1843381,104.22902 67.5994349,96.1629853 59.5333998,97.9554388 L63.118303,47.7667943 Z" id="Path" fill="#E97C6B"></path>
                    <path d="M18.9278564,243.023573 C17.8472497,244.492041 18.0639106,246.591153 17.1067014,248.14288 C16.2769771,249.48794 14.7132715,250.193192 13.6754465,251.385063 C13.3442879,251.781025 13.0490637,252.205703 12.7932747,252.654061 C11.8305455,254.266668 11.0480212,256.333422 11.9961836,257.95464 C12.7589208,259.25881 14.3621654,259.768527 15.8325258,260.115916 C17.6909699,260.555022 19.6219054,260.906428 21.5018027,260.570889 C23.3816999,260.23535 25.2189555,259.084234 25.8892352,257.296124 C26.0209755,256.846505 26.1775901,256.404551 26.358355,255.972304 C27.3772805,253.966374 30.5732669,253.944691 31.616063,251.951054 C32.3458283,250.555879 31.674992,248.869434 31.004436,247.444849 L28.9564054,243.093841 C28.2767558,241.649933 25.5215575,242.480307 24.0852084,242.1343 C22.2119055,241.683068 20.2755006,241.185889 18.9278564,243.023573 Z" id="Path" fill="#4C4C4C"></path>
                    <path d="M3.96740249,103.332796 L22.7881432,132.460135 C22.7881432,132.460135 34.4390776,147.247858 38.0239807,140.526166 C41.6088839,133.804474 25.4768216,122.601651 25.4768216,122.601651 L13.3777728,100.196026 L3.96740249,103.332796 Z" id="Path" fill="#FDCEB9"></path>
                    <path d="M13.3777728,48.663023 L9.79286967,47.7667943 C9.79286967,47.7667943 2.62306331,50.0073583 0.830613669,59.4177287 C-0.961835974,68.828099 0.382499312,106.469584 2.62306331,106.917695 C4.86362731,107.365805 13.6891881,100.363552 15.1018768,101.848172 C16.5145656,103.332792 12.0334337,95.7148748 13.3777612,91.6818573 C14.7220887,87.6488397 13.3777728,48.663023 13.3777728,48.663023 Z" id="Path" fill="#E97C6B"></path>
                </g>
            </g>
        </g>
    </g>
</svg>