<svg xmlns="http://www.w3.org/2000/svg" width="2500" height="1240" viewBox="0 0 2500 1240">
  <defs>
    <linearGradient id="main-banner-1400-final-a" x1="0%" x2="100%" y1="37.707%" y2="61.931%">
      <stop offset="0%" stop-color="#4A8D97"/>
      <stop offset="100%" stop-color="#89D1D1"/>
    </linearGradient>
  </defs>
  <g fill="none" fill-rule="evenodd">
    <path fill="url(#main-banner-1400-final-a)" d="M0,0 L2500,0 L2500,1212.19464 C2177.27322,1116.77111 1929.33033,1073.47501 1756.17133,1082.30634 C1239.80004,1108.64195 1182.52051,1220.73115 727.837457,1237.88655 C449.263961,1248.39726 206.651476,1210.07662 0,1122.92463 L0,0 Z"/>
    <g fill="#FFF" transform="translate(0 992.32)">
      <path d="M506.5808,107.825684 C645.004653,157.52151 913.966675,171.093822 1313.46687,148.542622 C811.569893,285.138071 373.747604,279.158927 -1.45519152e-11,130.605189 L-1.45519152e-11,0.736111111 C135.636889,-0.421296296 304.497156,35.2752279 506.5808,107.825684 Z" opacity=".1"/>
      <path d="M172.576113,189.266669 C481.953092,130.486341 740.904805,93.6822281 949.431252,78.8543294 C1157.9577,64.0264307 1366.29857,72.1236282 1574.45385,103.145922 C1451.66065,117.382555 1306.07989,146.089471 1137.71158,189.266669 C837.895858,266.15289 516.184035,266.15289 172.576113,189.266669 Z" opacity=".1"/>
      <path d="M1815.36089,88.8585965 C2062.10519,28.9528655 2290.31823,20.9778718 2500,64.9336155 L2500,219.875191 C2205.88655,132.530795 1977.67352,88.8585965 1815.36089,88.8585965 Z" opacity=".2"/>
    </g>
  </g>
</svg>
